# xmcd
#
# Track frame offsets:
#	183
#	18110
#	37845
#	54835
#	73503
#	91373
#	106833
#	125705
#	143888
#	170628
#	193453
#	213808
#	232400
#	247363
#	263560
#	285553
#	304255
#	319778
#
# Disc length: 4556 seconds
# Revision: 1
# Processed by: cddbd v1.5.2PL0 Copyright (c) Steve Scherf et al.
# Submitted via: dBpowerAMP V12.0
#
DISCID=0a11ca12
DTITLE=Randy Crawford - The Very Best Of Randy Crawford
DYEAR=1993
DGENRE=Rock
TTITLE0=Street Life
TTITLE1=One Day I'll Fly Away
TTITLE2=Rainy Night In Georgia
TTITLE3=Almaz
TTITLE4=You Might Need Somebody
TTITLE5=Secret Combination
TTITLE6=Tender Falls The Rain
TTITLE7=This Old Heart Of Mine
TTITLE8=Imagine
TTITLE9=Knockin' On Heaven's Door
TTITLE10=Who's Crying Now
TTITLE11=Same Old Story (Same Old Song)
TTITLE12=One Hello
TTITLE13=I've Never Been To Me
TTITLE14=I Stand Accused
TTITLE15=Endlessly
TTITLE16=You Bring The Sun Out
TTITLE17=Everything Must Change
EXTD=
EXTT0=
EXTT1=
EXTT2=
EXTT3=
EXTT4=
EXTT5=
EXTT6=
EXTT7=
EXTT8=
EXTT9=
EXTT10=
EXTT11=
EXTT12=
EXTT13=
EXTT14=
EXTT15=
EXTT16=
EXTT17=
PLAYORDER=
